HIERARCHY
ROOT mixamorig:Hips
{
	OFFSET 0.000000 201.639420 0.000000
	CHANNELS 6 Xposition Yposition Zposition Xrotation Yrotation Zrotation
	JOINT mixamorig:Spine
	{
		OFFSET 0.006200 19.524994 -2.481800
		CHANNELS 3 Xrotation Yrotation Zrotation
		JOINT mixamorig:Spine1
		{
			OFFSET -0.000900 22.835007 -2.825400
			CHANNELS 3 Xrotation Yrotation Zrotation
			JOINT mixamorig:Spine2
			{
				OFFSET -0.020600 26.552490 -3.193300
				CHANNELS 3 Xrotation Yrotation Zrotation
				JOINT mixamorig:Neck
				{
					OFFSET -0.060000 30.701813 1.352200
					CHANNELS 3 Xrotation Yrotation Zrotation
					JOINT mixamorig:Head
					{
						OFFSET -0.087200 22.547607 3.670900
						CHANNELS 3 Xrotation Yrotation Zrotation
						JOINT mixamorig:HeadTop_End
						{
							OFFSET -0.830600 40.355194 7.893500
							CHANNELS 3 Xrotation Yrotation Zrotation
							End Site
							{
								OFFSET 0.000000 30.592346 0.000000
							}
						}
						JOINT mixamorig:RightEye
						{
							OFFSET -6.302100 18.118591 16.197100
							CHANNELS 3 Xrotation Yrotation Zrotation
							End Site
							{
								OFFSET 0.000000 30.592346 0.000000
							}
						}
						JOINT mixamorig:LeftEye
						{
							OFFSET 6.741500 18.382690 16.401899
							CHANNELS 3 Xrotation Yrotation Zrotation
							End Site
							{
								OFFSET 0.000000 30.592346 0.000000
							}
						}
					}
				}
				JOINT mixamorig:LeftShoulder
				{
					OFFSET 11.924900 18.230499 1.425400
					CHANNELS 3 Xrotation Yrotation Zrotation
					JOINT mixamorig:LeftArm
					{
						OFFSET 25.435989 -0.697632 -5.229300
						CHANNELS 3 Xrotation Yrotation Zrotation
						JOINT mixamorig:LeftForeArm
						{
							OFFSET 54.684776 0.000000 0.000000
							CHANNELS 3 Xrotation Yrotation Zrotation
							JOINT mixamorig:LeftHand
							{
								OFFSET 55.098175 0.000000 0.000000
								CHANNELS 3 Xrotation Yrotation Zrotation
								JOINT mixamorig:LeftHandMiddle1
								{
									OFFSET 23.369751 0.000000 0.000000
									CHANNELS 3 Xrotation Yrotation Zrotation
									JOINT mixamorig:LeftHandMiddle2
									{
										OFFSET 6.378677 0.000000 0.000000
										CHANNELS 3 Xrotation Yrotation Zrotation
										JOINT mixamorig:LeftHandMiddle3
										{
											OFFSET 6.148331 0.000000 0.000000
											CHANNELS 3 Xrotation Yrotation Zrotation
											JOINT mixamorig:LeftHandMiddle4
											{
												OFFSET 6.582504 0.000000 0.000000
												CHANNELS 3 Xrotation Yrotation Zrotation
												End Site
												{
													OFFSET -1.168900 6.395691 1.028606
												}
											}
										}
									}
								}
								JOINT mixamorig:LeftHandThumb1
								{
									OFFSET 7.235672 -3.848206 5.434273
									CHANNELS 3 Xrotation Yrotation Zrotation
									JOINT mixamorig:LeftHandThumb2
									{
										OFFSET 6.568451 -3.792297 3.792300
										CHANNELS 3 Xrotation Yrotation Zrotation
										JOINT mixamorig:LeftHandThumb3
										{
											OFFSET 6.063080 -3.500519 3.500518
											CHANNELS 3 Xrotation Yrotation Zrotation
											JOINT mixamorig:LeftHandThumb4
											{
												OFFSET 4.793182 -2.767334 2.767349
												CHANNELS 3 Xrotation Yrotation Zrotation
												End Site
												{
													OFFSET 0.101639 6.054260 1.275483
												}
											}
										}
									}
								}
								JOINT mixamorig:LeftHandIndex1
								{
									OFFSET 23.101074 -0.309540 4.992809
									CHANNELS 3 Xrotation Yrotation Zrotation
									JOINT mixamorig:LeftHandIndex2
									{
										OFFSET 6.226883 0.000000 0.000000
										CHANNELS 3 Xrotation Yrotation Zrotation
										JOINT mixamorig:LeftHandIndex3
										{
											OFFSET 6.094330 0.000000 0.000000
											CHANNELS 3 Xrotation Yrotation Zrotation
											JOINT mixamorig:LeftHandIndex4
											{
												OFFSET 5.482605 0.000000 0.000000
												CHANNELS 3 Xrotation Yrotation Zrotation
												End Site
												{
													OFFSET -1.427902 5.233032 0.797164
												}
											}
										}
									}
								}
								JOINT mixamorig:LeftHandRing1
								{
									OFFSET 22.299240 0.021149 -3.964172
									CHANNELS 3 Xrotation Yrotation Zrotation
									JOINT mixamorig:LeftHandRing2
									{
										OFFSET 6.321869 0.000000 0.000000
										CHANNELS 3 Xrotation Yrotation Zrotation
										JOINT mixamorig:LeftHandRing3
										{
											OFFSET 5.899796 0.000000 0.000000
											CHANNELS 3 Xrotation Yrotation Zrotation
											JOINT mixamorig:LeftHandRing4
											{
												OFFSET 6.517899 0.000000 0.000000
												CHANNELS 3 Xrotation Yrotation Zrotation
												End Site
												{
													OFFSET -1.637299 6.232208 0.980890
												}
											}
										}
									}
								}
								JOINT mixamorig:LeftHandPinky1
								{
									OFFSET 20.463791 -0.302338 -8.562233
									CHANNELS 3 Xrotation Yrotation Zrotation
									JOINT mixamorig:LeftHandPinky2
									{
										OFFSET 6.908646 0.000000 0.000000
										CHANNELS 3 Xrotation Yrotation Zrotation
										JOINT mixamorig:LeftHandPinky3
										{
											OFFSET 4.622849 0.000000 0.000000
											CHANNELS 3 Xrotation Yrotation Zrotation
											JOINT mixamorig:LeftHandPinky4
											{
												OFFSET 5.216080 0.000000 0.000000
												CHANNELS 3 Xrotation Yrotation Zrotation
												End Site
												{
													OFFSET -0.606308 5.116241 0.814926
												}
											}
										}
									}
								}
							}
						}
					}
				}
				JOINT mixamorig:RightShoulder
				{
					OFFSET -12.001300 18.284088 1.348900
					CHANNELS 3 Xrotation Yrotation Zrotation
					JOINT mixamorig:RightArm
					{
						OFFSET -25.308500 -0.751312 -5.164599
						CHANNELS 3 Xrotation Yrotation Zrotation
						JOINT mixamorig:RightForeArm
						{
							OFFSET -54.684429 0.000000 0.000000
							CHANNELS 3 Xrotation Yrotation Zrotation
							JOINT mixamorig:RightHand
							{
								OFFSET -55.150291 0.000000 0.000000
								CHANNELS 3 Xrotation Yrotation Zrotation
								JOINT mixamorig:RightHandMiddle1
								{
									OFFSET -23.317566 0.000000 0.000000
									CHANNELS 3 Xrotation Yrotation Zrotation
									JOINT mixamorig:RightHandMiddle2
									{
										OFFSET -6.378403 0.000000 0.000000
										CHANNELS 3 Xrotation Yrotation Zrotation
										JOINT mixamorig:RightHandMiddle3
										{
											OFFSET -6.148193 0.000000 0.000000
											CHANNELS 3 Xrotation Yrotation Zrotation
											JOINT mixamorig:RightHandMiddle4
											{
												OFFSET -6.583389 0.000000 0.000000
												CHANNELS 3 Xrotation Yrotation Zrotation
												End Site
												{
													OFFSET 1.171692 6.395905 1.029786
												}
											}
										}
									}
								}
								JOINT mixamorig:RightHandThumb1
								{
									OFFSET -7.190521 -3.860474 5.435846
									CHANNELS 3 Xrotation Yrotation Zrotation
									JOINT mixamorig:RightHandThumb2
									{
										OFFSET -6.567429 -3.791718 3.791708
										CHANNELS 3 Xrotation Yrotation Zrotation
										JOINT mixamorig:RightHandThumb3
										{
											OFFSET -6.062469 -3.500153 3.500166
											CHANNELS 3 Xrotation Yrotation Zrotation
											JOINT mixamorig:RightHandThumb4
											{
												OFFSET -4.792618 -2.767029 2.767022
												CHANNELS 3 Xrotation Yrotation Zrotation
												End Site
												{
													OFFSET -0.100327 6.053253 1.276754
												}
											}
										}
									}
								}
								JOINT mixamorig:RightHandIndex1
								{
									OFFSET -23.048981 -0.310791 4.992554
									CHANNELS 3 Xrotation Yrotation Zrotation
									JOINT mixamorig:RightHandIndex2
									{
										OFFSET -6.227539 0.000000 0.000000
										CHANNELS 3 Xrotation Yrotation Zrotation
										JOINT mixamorig:RightHandIndex3
										{
											OFFSET -6.095047 0.000000 0.000000
											CHANNELS 3 Xrotation Yrotation Zrotation
											JOINT mixamorig:RightHandIndex4
											{
												OFFSET -5.484772 0.000000 0.000000
												CHANNELS 3 Xrotation Yrotation Zrotation
												End Site
												{
													OFFSET 1.420593 5.237305 0.797056
												}
											}
										}
									}
								}
								JOINT mixamorig:RightHandRing1
								{
									OFFSET -22.246323 0.020569 -3.963762
									CHANNELS 3 Xrotation Yrotation Zrotation
									JOINT mixamorig:RightHandRing2
									{
										OFFSET -6.322128 0.000000 0.000000
										CHANNELS 3 Xrotation Yrotation Zrotation
										JOINT mixamorig:RightHandRing3
										{
											OFFSET -5.900024 0.000000 0.000000
											CHANNELS 3 Xrotation Yrotation Zrotation
											JOINT mixamorig:RightHandRing4
											{
												OFFSET -6.518356 0.000000 0.000000
												CHANNELS 3 Xrotation Yrotation Zrotation
												End Site
												{
													OFFSET 1.636398 6.232697 0.982186
												}
											}
										}
									}
								}
								JOINT mixamorig:RightHandPinky1
								{
									OFFSET -20.411011 -0.303314 -8.561701
									CHANNELS 3 Xrotation Yrotation Zrotation
									JOINT mixamorig:RightHandPinky2
									{
										OFFSET -6.907349 0.000000 0.000000
										CHANNELS 3 Xrotation Yrotation Zrotation
										JOINT mixamorig:RightHandPinky3
										{
											OFFSET -4.623840 0.000000 0.000000
											CHANNELS 3 Xrotation Yrotation Zrotation
											JOINT mixamorig:RightHandPinky4
											{
												OFFSET -5.218353 0.000000 0.000000
												CHANNELS 3 Xrotation Yrotation Zrotation
												End Site
												{
													OFFSET 0.602097 5.118835 0.816273
												}
											}
										}
									}
								}
							}
						}
					}
				}
			}
		}
	}
	JOINT mixamorig:LeftUpLeg
	{
		OFFSET 18.168400 -13.561905 -0.039000
		CHANNELS 3 Xrotation Yrotation Zrotation
		JOINT mixamorig:LeftLeg
		{
			OFFSET 0.577358 -80.825211 -3.695000
			CHANNELS 3 Xrotation Yrotation Zrotation
			JOINT mixamorig:LeftFoot
			{
				OFFSET -0.577356 -83.370262 -6.520700
				CHANNELS 3 Xrotation Yrotation Zrotation
				JOINT mixamorig:LeftToeBase
				{
					OFFSET 0.750401 -20.798306 25.135401
					CHANNELS 3 Xrotation Yrotation Zrotation
					JOINT mixamorig:LeftToe_End
					{
						OFFSET -0.000500 0.001200 19.917799
						CHANNELS 3 Xrotation Yrotation Zrotation
						End Site
						{
							OFFSET 0.000000 19.917805 0.000000
						}
					}
				}
			}
		}
	}
	JOINT mixamorig:RightUpLeg
	{
		OFFSET -18.162500 -13.585098 -0.041000
		CHANNELS 3 Xrotation Yrotation Zrotation
		JOINT mixamorig:RightLeg
		{
			OFFSET -0.595024 -80.945297 -3.631900
			CHANNELS 3 Xrotation Yrotation Zrotation
			JOINT mixamorig:RightFoot
			{
				OFFSET 0.595024 -83.218193 -6.561200
				CHANNELS 3 Xrotation Yrotation Zrotation
				JOINT mixamorig:RightToeBase
				{
					OFFSET -0.753601 -20.807106 25.115000
					CHANNELS 3 Xrotation Yrotation Zrotation
					JOINT mixamorig:RightToe_End
					{
						OFFSET 0.000299 0.001700 19.918200
						CHANNELS 3 Xrotation Yrotation Zrotation
						End Site
						{
							OFFSET 0.000000 19.918203 0.000000
						}
					}
				}
			}
		}
	}
}
MOTION
Frames: 5
Frame Time: 0.033333
-0.012705 173.029312 -0.641731 -5.398707 -46.252012 -0.056117 9.475563 7.180803 -1.803799 2.187716 0.989895 -0.915630 2.202829 0.982776 -0.894153 0.084653 13.220561 4.538679 8.920925 20.138142 -4.130233 0.000000 0.000000 -0.000000 0.000000 0.000000 -0.000000 0.000000 0.000000 -0.000000 1.117177 3.546360 -8.633313 -53.487020 4.935507 -51.502987 -0.000186 -106.358053 -0.000201 1.988608 -7.706146 -15.869221 -0.461472 3.841578 -39.722690 6.450738 5.820344 -95.892851 2.182887 4.561564 -51.127719 -0.000000 -0.000001 -0.000001 -6.141204 -11.690814 -6.761695 9.914078 42.595532 3.409869 -0.422811 8.108105 27.509103 0.000000 0.000001 -0.000001 0.255310 3.378206 -45.814341 5.654083 5.847745 -88.067462 2.162143 4.544814 -50.866382 -0.000001 -0.000001 -0.000001 0.469723 4.966832 -39.799447 8.181048 5.368627 -113.502984 3.200487 5.218116 -63.022982 0.000001 -0.000000 -0.000001 -3.762423 9.063686 -45.253825 5.342521 5.829003 -85.005283 8.716855 5.103349 -119.369181 0.000000 -0.000001 0.000001 3.036128 13.027203 -5.371409 -48.713705 27.172828 83.457084 0.000508 105.988280 -0.000515 -8.345381 17.548112 8.775687 -0.761620 -2.932906 39.031051 5.133887 -4.632770 95.881635 1.739736 -3.631691 51.181377 -0.000001 0.000000 0.000001 -7.341104 13.749656 7.412322 9.855776 -44.489089 -3.903261 -0.115792 -14.513076 -28.973881 -0.000002 0.000001 -0.000001 -0.124376 -2.384780 45.108857 4.500559 -4.654511 88.071130 1.723224 -3.618373 50.920116 0.000002 -0.000001 0.000000 0.154764 -4.068822 39.122664 6.509725 -4.273602 113.462857 2.549577 -4.153903 63.067324 0.000002 0.000001 0.000006 -4.198875 -8.025514 44.637776 4.252913 -4.639629 85.014832 6.935956 -4.062613 119.322312 0.000002 -0.000001 -0.000000 -34.130851 7.615476 16.986778 59.306813 -6.173493 4.298881 -22.400309 -8.372826 -14.231626 -1.594035 -0.000010 0.000002 0.000000 -0.000002 -0.000000 -27.091530 -9.870259 -27.856896 58.168896 -9.793298 -7.732352 -23.346309 -5.495992 20.852916 -0.012993 -0.000004 -0.000010 0.000000 0.000000 -0.000000 
0.358209 173.756012 -1.479575 -4.492441 -46.073239 0.018839 9.704263 6.762566 -1.698536 2.114429 0.941873 -0.788533 2.127672 0.939360 -0.769608 1.538446 12.498956 4.020645 8.179681 20.625274 -3.999401 -0.000001 0.000000 0.000000 -0.000001 0.000000 0.000000 -0.000001 0.000000 0.000000 1.147836 3.947292 -8.644603 -53.237718 5.380645 -51.102444 0.000188 -107.438158 0.000189 1.025137 -7.767517 -15.944880 -0.461473 3.841580 -39.722686 6.450737 5.820344 -95.892857 2.182885 4.561559 -51.127726 -0.000000 -0.000002 0.000004 -6.141208 -11.690814 -6.761693 9.914075 42.595536 3.409871 -0.422808 8.108106 27.509099 0.000003 0.000002 -0.000003 0.255307 3.378209 -45.814341 5.654081 5.847746 -88.067462 2.162141 4.544817 -50.866386 -0.000001 0.000000 0.000001 0.469721 4.966834 -39.799444 8.181048 5.368629 -113.502977 3.200488 5.218118 -63.022982 -0.000001 -0.000001 -0.000003 -3.762426 9.063685 -45.253825 5.342521 5.829005 -85.005283 8.716856 5.103353 -119.369181 -0.000001 0.000000 0.000001 2.855895 13.738655 -3.583897 -47.106128 27.119211 80.705768 0.000349 106.149165 -0.000353 -8.475166 17.366152 8.886052 -0.761619 -2.932911 39.031055 5.133887 -4.632773 95.881635 1.739740 -3.631692 51.181374 -0.000001 -0.000000 -0.000000 -7.341102 13.749648 7.412322 9.855786 -44.489096 -3.903259 -0.115801 -14.513075 -28.973881 -0.000002 -0.000002 -0.000001 -0.124375 -2.384790 45.108854 4.500561 -4.654509 88.071137 1.723224 -3.618373 50.920116 0.000002 -0.000003 -0.000001 0.154767 -4.068824 39.122664 6.509724 -4.273602 113.462850 2.549577 -4.153905 63.067330 0.000000 -0.000001 0.000001 -4.198874 -8.025518 44.637772 4.252913 -4.639630 85.014832 6.935951 -4.062611 119.322312 0.000000 0.000000 0.000000 -34.737785 7.028996 17.400047 58.373788 -6.069131 4.153531 -21.544017 -8.472980 -14.360044 -1.594035 -0.000012 0.000002 0.000000 0.000002 -0.000000 -27.546418 -10.378050 -26.898777 57.357436 -10.078358 -7.810306 -22.767105 -5.341272 20.541078 -0.019002 0.000012 -0.000000 -0.000000 0.000001 -0.000001 
0.892518 175.140793 -2.021286 -3.286226 -46.044552 0.204653 9.829149 6.298164 -1.654039 2.051591 0.886693 -0.673666 2.062853 0.887462 -0.657173 3.077253 11.729440 3.376810 7.168049 21.202855 -3.848163 -0.000000 0.000000 -0.000000 -0.000000 0.000000 -0.000000 -0.000000 0.000000 -0.000000 1.107221 4.347222 -8.330658 -53.444174 5.737285 -50.739682 0.000136 -108.439321 0.000138 1.121390 -7.912879 -16.011580 -0.461472 3.841576 -39.722690 6.450738 5.820344 -95.892851 2.182886 4.561562 -51.127719 -0.000000 -0.000001 -0.000002 -6.141202 -11.690810 -6.761692 9.914078 42.595532 3.409868 -0.422809 8.108101 27.509097 0.000003 0.000001 -0.000002 0.255313 3.378205 -45.814341 5.654083 5.847744 -88.067462 2.162143 4.544818 -50.866389 -0.000000 0.000001 -0.000002 0.469724 4.966832 -39.799451 8.181049 5.368627 -113.502977 3.200488 5.218119 -63.022982 0.000001 0.000001 0.000000 -3.762424 9.063684 -45.253825 5.342522 5.829001 -85.005283 8.716855 5.103348 -119.369181 -0.000004 -0.000001 -0.000001 2.519844 14.817728 -1.725769 -45.710669 26.473718 77.633112 0.000148 106.432522 -0.000142 -8.678415 17.246958 8.924810 -0.761618 -2.932910 39.031051 5.133891 -4.632768 95.881635 1.739736 -3.631694 51.181370 -0.000001 -0.000001 0.000001 -7.341105 13.749652 7.412324 9.855786 -44.489089 -3.903265 -0.115800 -14.513064 -28.973884 -0.000002 -0.000004 0.000001 -0.124374 -2.384784 45.108857 4.500558 -4.654512 88.071137 1.723225 -3.618374 50.920122 0.000001 0.000001 0.000003 0.154768 -4.068821 39.122664 6.509727 -4.273599 113.462857 2.549578 -4.153907 63.067324 -0.000002 -0.000002 0.000005 -4.198875 -8.025513 44.637776 4.252918 -4.639630 85.014832 6.935955 -4.062614 119.322312 -0.000002 -0.000001 -0.000000 -35.123623 6.676740 17.894715 56.665794 -5.902086 3.818413 -20.361313 -8.708042 -14.316485 -1.594035 -0.000010 0.000002 0.000000 0.000000 0.000000 -27.738208 -11.027370 -25.693500 55.470207 -10.135034 -7.968983 -21.575874 -5.335104 20.173857 -0.066455 0.000010 0.000004 -0.000000 0.000001 -0.000000 
1.610944 176.919952 -2.309889 -1.754335 -46.046116 0.564399 9.875249 5.800210 -1.638295 1.994309 0.825598 -0.567635 2.003571 0.828566 -0.553463 4.538505 10.902985 2.629951 5.801695 21.764685 -3.853982 0.000000 0.000001 -0.000000 0.000000 0.000001 -0.000000 0.000000 0.000001 -0.000000 1.035845 4.635219 -7.920146 -53.883957 5.901108 -50.342459 0.000213 -109.578296 0.000223 1.929651 -8.045021 -15.630775 -0.461470 3.841575 -39.722686 6.450738 5.820343 -95.892851 2.182888 4.561562 -51.127723 -0.000001 -0.000001 -0.000003 -6.141206 -11.690815 -6.761690 9.914081 42.595532 3.409869 -0.422813 8.108108 27.509099 0.000001 0.000001 -0.000001 0.255312 3.378207 -45.814341 5.654082 5.847745 -88.067462 2.162142 4.544814 -50.866382 -0.000001 0.000000 0.000000 0.469725 4.966833 -39.799447 8.181047 5.368628 -113.502977 3.200489 5.218119 -63.022982 -0.000001 -0.000000 0.000002 -3.762423 9.063682 -45.253825 5.342524 5.829003 -85.005283 8.716856 5.103355 -119.369181 -0.000002 -0.000000 0.000002 2.085811 15.972800 0.075297 -44.512852 25.476684 74.525785 -0.000052 106.839103 0.000064 -9.125620 17.161977 8.635712 -0.761620 -2.932908 39.031051 5.133889 -4.632769 95.881635 1.739738 -3.631692 51.181374 0.000000 -0.000002 -0.000001 -7.341103 13.749654 7.412323 9.855780 -44.489096 -3.903261 -0.115802 -14.513073 -28.973884 0.000004 -0.000000 0.000000 -0.124376 -2.384786 45.108861 4.500563 -4.654509 88.071137 1.723226 -3.618374 50.920116 -0.000000 0.000002 0.000001 0.154767 -4.068824 39.122664 6.509723 -4.273601 113.462850 2.549579 -4.153906 63.067324 0.000002 -0.000001 -0.000001 -4.198875 -8.025518 44.637772 4.252919 -4.639628 85.014832 6.935955 -4.062611 119.322312 0.000001 0.000000 0.000000 -35.508565 6.520712 18.442301 54.480816 -5.769577 3.326921 -18.943765 -9.059948 -14.059784 -1.594035 -0.000012 0.000002 0.000000 0.000003 0.000000 -27.840859 -11.725282 -24.337817 52.873430 -10.165522 -8.169124 -19.864772 -5.516483 19.688435 -0.287557 0.000020 -0.000006 0.000000 0.000001 -0.000000 
2.580706 178.909164 -2.277616 0.037920 -46.048623 1.040952 9.866481 5.268337 -1.595708 1.976754 0.757877 -0.465332 1.984174 0.762377 -0.453243 5.879098 10.069324 1.771744 3.889890 22.386835 -3.834904 0.000001 -0.000000 0.000000 0.000001 -0.000000 0.000000 0.000001 -0.000000 0.000000 1.020394 5.252342 -7.676946 -53.159215 5.814439 -50.139541 0.000059 -110.705892 0.000058 1.598543 -9.335681 -14.230404 -0.461469 3.841576 -39.722690 6.450738 5.820343 -95.892851 2.182886 4.561563 -51.127723 -0.000000 -0.000002 0.000001 -6.141207 -11.690815 -6.761690 9.914078 42.595532 3.409866 -0.422815 8.108107 27.509097 -0.000003 0.000003 -0.000000 0.255313 3.378208 -45.814341 5.654084 5.847748 -88.067462 2.162142 4.544818 -50.866389 -0.000002 -0.000001 0.000001 0.469724 4.966835 -39.799444 8.181049 5.368629 -113.502984 3.200486 5.218118 -63.022982 -0.000002 -0.000002 -0.000000 -3.762423 9.063687 -45.253825 5.342523 5.829000 -85.005283 8.716853 5.103350 -119.369181 -0.000003 -0.000001 0.000002 1.609878 16.934459 1.875129 -42.819364 24.764676 71.149568 0.000102 107.282061 -0.000101 -9.815252 17.182729 7.946501 -0.761616 -2.932910 39.031055 5.133888 -4.632772 95.881635 1.739738 -3.631693 51.181374 0.000000 -0.000001 0.000002 -7.341103 13.749651 7.412319 9.855774 -44.489100 -3.903258 -0.115792 -14.513066 -28.973884 -0.000002 -0.000002 -0.000005 -0.124375 -2.384786 45.108857 4.500561 -4.654509 88.071130 1.723224 -3.618372 50.920119 0.000002 0.000001 -0.000002 0.154767 -4.068823 39.122661 6.509726 -4.273600 113.462857 2.549579 -4.153902 63.067324 0.000000 0.000000 0.000002 -4.198874 -8.025514 44.637772 4.252916 -4.639631 85.014832 6.935957 -4.062614 119.322312 0.000000 0.000001 -0.000000 -35.941989 6.443656 18.856877 52.086353 -5.641362 2.876633 -17.437244 -9.323928 -13.649335 -1.594035 -0.000012 0.000002 0.000000 -0.000002 -0.000000 -27.761292 -12.403871 -22.903373 49.627676 -10.158187 -8.357937 -17.761169 -5.734815 19.258185 -0.442388 0.000011 0.000001 0.000000 0.000000 -0.000000 
